<svg version="1.1" id="" xmlns="http://www.w3.org/2000/svg" xmlns:xlink="http://www.w3.org/1999/xlink" x="0px" y="0px"
	viewBox="0 0 512 512" enable-background="new 0 0 512 512" xml:space="preserve">
<g id="moon_2">
	<g>
		<path fill="#646C77" d="M511.992,256c0,141.37-114.605,255.992-255.992,255.992C114.614,511.992,0.008,397.37,0.008,256
			C0.008,114.614,114.614,0.008,256,0.008C397.387,0.008,511.992,114.614,511.992,256z"/>
	</g>
	<g>
		<path fill="#FECD57" d="M469.321,256c0,117.809-95.497,213.32-213.321,213.32S42.679,373.809,42.679,256
			c0-117.824,95.497-213.337,213.321-213.337S469.321,138.176,469.321,256z"/>
	</g>
	<g>
		<path fill="#F5BA45" d="M85.334,256c0-110.621,84.2-201.572,191.994-212.275c-7.016-0.688-14.125-1.063-21.328-1.063
			C138.176,42.663,42.679,138.176,42.679,256c0,117.809,95.497,213.32,213.321,213.32c7.203,0,14.313-0.359,21.328-1.063
			C169.534,457.556,85.334,366.605,85.334,256z"/>
	</g>
</g>
</svg>
