<svg version="1.1" id="" xmlns="http://www.w3.org/2000/svg" xmlns:xlink="http://www.w3.org/1999/xlink" x="0px" y="0px"
	viewBox="0 0 512 512" enable-background="new 0 0 512 512" xml:space="preserve">
<g id="sun_cloud">
	<path fill="#FFCE54" d="M170.675,330.669c-52.936,0-95.997-43.076-95.997-95.997c0-52.936,43.062-95.996,95.997-95.996
		s95.997,43.061,95.997,95.996C266.672,287.593,223.61,330.669,170.675,330.669z"/>
	<path fill="#F6BB42" d="M170.675,128.004c-58.904,0-106.669,47.748-106.669,106.668c0,58.905,47.765,106.653,106.669,106.653
		s106.669-47.748,106.669-106.653C277.344,175.752,229.579,128.004,170.675,128.004z M231.017,294.999
		c-16.124,16.124-37.546,24.999-60.342,24.999s-44.218-8.875-60.342-24.999c-16.108-16.109-24.999-37.546-24.999-60.327
		c0-22.796,8.891-44.232,24.999-60.342c16.124-16.124,37.546-24.999,60.342-24.999s44.218,8.875,60.342,24.999
		C247.125,190.439,256,211.876,256,234.672C256,257.453,247.125,278.89,231.017,294.999z"/>
	<path fill="#FFCE54" d="M72.631,317.639l-22.64,22.624c-4.156,4.156-4.156,10.906,0,15.078c2.094,2.078,4.813,3.125,7.547,3.125
		c2.733,0,5.468-1.047,7.546-3.125l22.625-22.625c4.172-4.172,4.172-10.921,0-15.077C83.537,313.467,76.787,313.467,72.631,317.639z
		"/>
	<path fill="#FFCE54" d="M291.343,113.988c-4.156-4.156-10.906-4.156-15.077,0l-22.625,22.625c-4.172,4.172-4.172,10.921,0,15.093
		c2.078,2.078,4.813,3.125,7.547,3.125c2.719,0,5.453-1.047,7.531-3.125l22.624-22.624
		C295.515,124.91,295.515,118.16,291.343,113.988z"/>
	<path fill="#F6BB42" d="M170.675,64.006c-5.891,0-10.672,4.781-10.672,10.672v31.999c0,5.89,4.781,10.655,10.672,10.655
		s10.671-4.766,10.671-10.655V74.678C181.346,68.787,176.565,64.006,170.675,64.006z"/>
	<path fill="#FFCE54" d="M72.631,151.706c2.078,2.078,4.813,3.125,7.531,3.125c2.734,0,5.469-1.047,7.547-3.125
		c4.172-4.172,4.172-10.921,0-15.093l-22.625-22.625c-4.172-4.156-10.921-4.156-15.093,0c-4.156,4.172-4.156,10.922,0,15.094
		L72.631,151.706z"/>
	<path fill="#F6BB42" d="M53.351,234.672c0-5.891-4.781-10.671-10.672-10.671H10.68c-5.891,0-10.672,4.78-10.672,10.671
		s4.781,10.656,10.672,10.656h31.999C48.569,245.328,53.351,240.563,53.351,234.672z"/>
	<g>
		<path fill="#CCD1D9" d="M382.668,189.346c-37.28,0-70.872,15.78-94.466,41.014c-12.655-14.562-31.296-23.78-52.107-23.78
			c-38.093,0-68.967,30.89-68.967,68.983c0,0.578,0,1.141,0.016,1.718c-39.358,7.984-68.998,42.78-68.998,84.498
			c0,47.607,38.608,86.216,86.216,86.216h198.307c71.435,0,129.324-57.905,129.324-129.324
			C511.992,247.234,454.103,189.346,382.668,189.346z"/>
	</g>
	<g>
		<path fill="#AAB2BC" d="M462.821,217.173c17.438,22.046,27.844,49.89,27.844,80.154c0,71.435-57.904,129.34-129.325,129.34
			H163.034c-18.358,0-35.374-5.75-49.357-15.531c15.593,22.281,41.437,36.858,70.685,36.858h198.307
			c71.435,0,129.324-57.905,129.324-129.324C511.992,277.515,492.774,240.859,462.821,217.173z"/>
	</g>
</g>
</svg>
