<svg version="1.1" id="" xmlns="http://www.w3.org/2000/svg" xmlns:xlink="http://www.w3.org/1999/xlink" x="0px" y="0px"
	viewBox="0 0 512 512" enable-background="new 0 0 512 512" xml:space="preserve">
<g id="fog_1">
	<g>
		<path fill="#CCD1D9" d="M382.668,126.665c-37.28,0-70.872,15.781-94.481,41.03c-12.64-14.577-31.296-23.78-52.092-23.78
			c-38.093,0-68.982,30.874-68.982,68.966c0,0.578,0.016,1.156,0.031,1.734c-39.374,7.969-68.998,42.779-68.998,84.506
			c0,47.592,38.593,86.215,86.216,86.215h198.307c71.419,0,129.324-57.904,129.324-129.332
			C511.992,184.569,454.087,126.665,382.668,126.665z"/>
	</g>
	<g>
		<path fill="#AAB2BC" d="M462.821,154.508c17.422,22.03,27.828,49.873,27.828,80.153c0,71.429-57.889,129.331-129.325,129.331
			h-198.29c-18.374,0-35.39-5.748-49.373-15.529c15.593,22.279,41.437,36.873,70.7,36.873h198.307
			c71.419,0,129.324-57.904,129.324-129.332C511.992,214.85,492.774,178.194,462.821,154.508z"/>
	</g>
	<g>
		<path fill="#AAB2BC" d="M96.006,257.332h149.322c5.891,0,10.672-4.781,10.672-10.671s-4.781-10.671-10.672-10.671H96.006
			c-5.891,0-10.672,4.781-10.672,10.671S90.115,257.332,96.006,257.332z"/>
		<path fill="#E6E9ED" d="M202.658,299.996H10.664c-5.891,0-10.656,4.781-10.656,10.654c0,5.906,4.766,10.688,10.656,10.688h191.994
			c5.891,0,10.672-4.781,10.672-10.688C213.33,304.777,208.549,299.996,202.658,299.996z"/>
		<path fill="#AAB2BC" d="M192.002,363.992H74.662c-5.891,0-10.656,4.781-10.656,10.656c0,5.906,4.766,10.688,10.656,10.688h117.34
			c5.891,0,10.656-4.781,10.656-10.688C202.658,368.773,197.893,363.992,192.002,363.992z"/>
	</g>
</g>
</svg>
