<svg version="1.1" id="" xmlns="http://www.w3.org/2000/svg" xmlns:xlink="http://www.w3.org/1999/xlink" x="0px" y="0px"
	viewBox="0 0 512 512" enable-background="new 0 0 512 512" xml:space="preserve">
<g id="moon_cloud">
	<g>
		<path fill="#FFCE54" d="M191.924,195.956c-66.951,0-121.215-54.264-121.215-121.199c0-15.054,2.75-29.46,7.766-42.749
			C32.617,49.288,0.008,93.561,0.008,145.458c0,66.935,54.265,121.207,121.215,121.207c51.89,0,96.154-32.616,113.45-78.458
			C221.376,193.213,206.971,195.956,191.924,195.956z"/>
	</g>
	<g>
		<path fill="#F6BB42" d="M142.551,245.329c-66.951,0-121.215-54.264-121.215-121.207c0-28.038,9.531-53.85,25.515-74.388
			C18.352,71.913,0.008,106.544,0.008,145.458c0,66.935,54.265,121.207,121.215,121.207c38.905,0,73.529-18.343,95.717-46.842
			C196.408,235.806,170.597,245.329,142.551,245.329z"/>
	</g>
	<g>
		<path fill="#CCD1D9" d="M382.668,221.338c-37.28,0-70.872,15.78-94.481,41.014c-12.64-14.562-31.296-23.773-52.092-23.773
			c-38.093,0-68.967,30.882-68.967,68.982c0,0.563,0,1.141,0.016,1.719c-39.358,7.969-68.998,42.781-68.998,84.498
			c0,47.609,38.608,86.215,86.216,86.215h198.307c71.419,0,129.324-57.902,129.324-129.338
			C511.992,279.234,454.087,221.338,382.668,221.338z"/>
	</g>
	<g>
		<path fill="#AAB2BC" d="M462.821,249.172c17.438,22.039,27.844,49.89,27.844,80.169c0,71.404-57.904,129.309-129.325,129.309
			H163.034c-18.358,0-35.374-5.734-49.357-15.516c15.577,22.279,41.437,36.857,70.685,36.857h198.307
			c71.419,0,129.324-57.902,129.324-129.338C511.992,309.514,492.774,272.859,462.821,249.172z"/>
	</g>
</g>
</svg>
