<svg version="1.1" id="" xmlns="http://www.w3.org/2000/svg" xmlns:xlink="http://www.w3.org/1999/xlink" x="0px" y="0px"
	viewBox="0 0 512 512" enable-background="new 0 0 512 512" xml:space="preserve">
<g id="rain_1">
	<g>
		<path fill="#CCD1D9" d="M351.997,10.68c-46.123,0-87.677,19.515-116.871,50.733c-15.647-18.016-38.718-29.406-64.459-29.406
			c-47.124,0-85.325,38.202-85.325,85.325c0,0.719,0.008,1.422,0.023,2.141c-48.702,9.859-85.357,52.92-85.357,104.528
			c0,58.904,47.757,106.668,106.661,106.668h245.328c88.356,0,159.995-71.638,159.995-159.995
			C511.992,82.302,440.354,10.68,351.997,10.68z"/>
	</g>
	<g>
		<path fill="#AAB2BC" d="M453.962,47.366c22.922,27.687,36.703,63.217,36.703,101.966c0,88.372-71.638,159.995-159.995,159.995
			H85.342c-24.016,0-46.179-7.937-64.006-21.327c19.46,25.905,50.443,42.67,85.333,42.67h245.328
			c88.356,0,159.995-71.638,159.995-159.995C511.992,121.051,489.415,76.725,453.962,47.366z"/>
	</g>
	<g>
		<path fill="#5D9CEC" d="M85.334,501.32c-1.609,0-3.234-0.359-4.766-1.125c-5.266-2.625-7.406-9.047-4.773-14.313l63.998-127.995
			c2.641-5.266,9.047-7.406,14.313-4.766c5.273,2.641,7.405,9.046,4.773,14.312L94.881,495.43
			C93.014,499.164,89.24,501.32,85.334,501.32z"/>
	</g>
	<g>
		<path fill="#4A89DC" d="M149.332,501.32c-1.609,0-3.234-0.359-4.766-1.125c-5.266-2.625-7.406-9.047-4.773-14.313l63.998-127.995
			c2.641-5.266,9.047-7.406,14.313-4.766c5.272,2.641,7.405,9.046,4.772,14.312L158.879,495.43
			C157.012,499.164,153.238,501.32,149.332,501.32z"/>
	</g>
	<g>
		<path fill="#5D9CEC" d="M213.33,501.32c-1.609,0-3.234-0.359-4.766-1.125c-5.266-2.625-7.406-9.047-4.773-14.313l63.998-127.995
			c2.641-5.266,9.055-7.406,14.304-4.766c5.281,2.641,7.406,9.046,4.781,14.312L222.876,495.43
			C221.009,499.164,217.236,501.32,213.33,501.32z"/>
	</g>
	<g>
		<path fill="#4A89DC" d="M277.328,501.32c-1.609,0-3.234-0.359-4.766-1.125c-5.266-2.625-7.406-9.047-4.773-14.313l64.006-127.995
			c2.625-5.266,9.03-7.406,14.312-4.766c5.266,2.641,7.406,9.046,4.766,14.312L286.874,495.43
			C284.999,499.164,281.233,501.32,277.328,501.32z"/>
	</g>
</g>
</svg>
