<svg version="1.1" id="" xmlns="http://www.w3.org/2000/svg" xmlns:xlink="http://www.w3.org/1999/xlink" x="0px" y="0px"
	viewBox="0 0 512 512" enable-background="new 0 0 512 512" xml:space="preserve">
<g id="cloudy">
	<g>
		<path fill="#AAB2BC" d="M382.652,168.674c-37.28,0-70.856,15.781-94.466,41.015c-12.64-14.562-31.296-23.772-52.092-23.772
			c-38.101,0-68.982,30.882-68.982,68.975c0,0.578,0.016,1.148,0.023,1.719c-39.358,7.984-68.99,42.78-68.99,84.497
			c0,47.607,38.601,86.217,86.216,86.217h198.291c71.435,0,129.34-57.89,129.34-129.324
			C511.992,226.571,454.087,168.674,382.652,168.674z"/>
	</g>
	<g>
		<path fill="#949DA8" d="M462.821,196.51c17.422,22.038,27.828,49.881,27.828,80.162c0,71.419-57.904,129.323-129.325,129.323
			H163.026c-18.358,0-35.374-5.75-49.357-15.531c15.585,22.281,41.437,36.859,70.692,36.859h198.291
			c71.435,0,129.34-57.89,129.34-129.324C511.992,256.852,492.774,220.196,462.821,196.51z"/>
	</g>
	<g>
		<path fill="#D7DCE2" d="M284.53,84.677c-37.288,0-70.872,15.773-94.481,41.015c-12.64-14.563-31.295-23.772-52.1-23.772
			c-38.093,0-68.975,30.882-68.975,68.974c0,0.57,0.008,1.148,0.023,1.719c-39.365,7.984-68.99,42.78-68.99,84.498
			c0,47.608,38.601,86.216,86.217,86.216H284.53c71.42,0,129.31-57.904,129.31-129.324C413.84,142.574,355.95,84.677,284.53,84.677z
			"/>
	</g>
	<g>
		<path fill="#CCD1D9" d="M364.684,112.512c17.422,22.031,27.844,49.881,27.844,80.154c0,71.428-57.904,129.332-129.34,129.332
			H64.889c-18.358,0-35.373-5.75-49.357-15.53c15.586,22.279,41.437,36.857,70.693,36.857H284.53
			c71.42,0,129.31-57.904,129.31-129.324C413.84,172.854,394.621,136.199,364.684,112.512z"/>
	</g>
</g>
</svg>
