<svg version="1.1" id="" xmlns="http://www.w3.org/2000/svg" xmlns:xlink="http://www.w3.org/1999/xlink" x="0px" y="0px"
	viewBox="0 0 512 512" enable-background="new 0 0 512 512" xml:space="preserve">
<g id="rain_2">
	<g>
		<path fill="#CCD1D9" d="M351.997,42.726c-46.123,0-87.685,19.516-116.871,50.733c-15.655-18.015-38.718-29.405-64.467-29.405
			c-47.124,0-85.325,38.202-85.325,85.325c0,0.719,0.016,1.422,0.031,2.141c-48.702,9.874-85.357,52.92-85.357,104.528
			c0,58.904,47.749,106.668,106.653,106.668h245.336c88.356,0,159.995-71.638,159.995-159.995
			C511.992,114.349,440.354,42.726,351.997,42.726z"/>
	</g>
	<g>
		<path fill="#AAB2BC" d="M453.962,79.412c22.906,27.688,36.688,63.218,36.688,101.966c0,88.373-71.622,159.995-159.995,159.995
			H85.334c-24.016,0-46.171-7.938-63.998-21.327c19.452,25.905,50.436,42.67,85.325,42.67h245.336
			c88.356,0,159.995-71.638,159.995-159.995C511.992,153.098,489.399,108.771,453.962,79.412z"/>
	</g>
	<g>
		<path fill="#5D9CEC" d="M319.999,405.277c0,35.359-28.656,63.997-63.999,63.997s-63.998-28.638-63.998-63.997
			c0-35.343,51.842-127.902,64.029-127.902S319.999,369.935,319.999,405.277z"/>
	</g>
	<g>
		<path fill="#4A89DC" d="M405.324,437.277c0,17.67-14.328,31.997-32,31.997c-17.671,0-31.999-14.327-31.999-31.997
			c0-17.672,25.858-53.234,31.952-53.234S405.324,419.605,405.324,437.277z"/>
	</g>
	<g>
		<path fill="#4A89DC" d="M170.659,437.277c0,17.67-14.312,31.997-31.999,31.997c-17.656,0-31.999-14.327-31.999-31.997
			c0-17.672,25.858-53.234,31.952-53.234S170.659,419.605,170.659,437.277z"/>
	</g>
</g>
</svg>
