<svg version="1.1" id="" xmlns="http://www.w3.org/2000/svg" xmlns:xlink="http://www.w3.org/1999/xlink" x="0px" y="0px"
	viewBox="0 0 512 512" enable-background="new 0 0 512 512" xml:space="preserve">
<g id="snow_2">
	<g>
		<path fill="#CCD1D9" d="M351.997,53.335c-46.123,0-87.685,19.53-116.871,50.748c-15.655-18.015-38.718-29.405-64.467-29.405
			c-47.124,0-85.325,38.202-85.325,85.325c0,0.719,0.016,1.422,0.031,2.125c-48.702,9.875-85.357,52.921-85.357,104.544
			c0,58.903,47.749,106.652,106.653,106.652h245.336c88.356,0,159.995-71.622,159.995-159.994
			C511.992,124.973,440.354,53.335,351.997,53.335z"/>
	</g>
	<g>
		<path fill="#AAB2BC" d="M453.962,90.037c22.922,27.686,36.688,63.217,36.688,101.965c0,88.356-71.622,159.995-159.995,159.995
			H85.334c-24.016,0-46.171-7.938-63.998-21.328c19.452,25.906,50.436,42.655,85.325,42.655h245.336
			c88.356,0,159.995-71.622,159.995-159.994C511.992,163.722,489.399,119.379,453.962,90.037z"/>
	</g>
	<g>
		<g>
			<g>
				<path fill="#4A89DC" d="M319.312,415.995c-1.813,0-3.641-0.453-5.313-1.422L166.19,329.231
					c-5.094-2.938-6.843-9.468-3.906-14.562c2.953-5.109,9.469-6.859,14.578-3.906l147.792,85.325
					c5.109,2.953,6.844,9.469,3.906,14.578C326.592,414.089,322.998,415.995,319.312,415.995z"/>
			</g>
			<g>
				<g>
					<path fill="#4A89DC" d="M199.236,346.669c-4.719,0-9.031-3.141-10.297-7.906l-7.813-29.14
						c-1.53-5.702,1.844-11.546,7.547-13.062c5.688-1.531,11.531,1.844,13.063,7.531l7.797,29.139
						c1.531,5.703-1.844,11.547-7.531,13.063C201.08,346.544,200.143,346.669,199.236,346.669z"/>
				</g>
				<g>
					<path fill="#4A89DC" d="M170.097,354.481c-4.719,0-9.031-3.156-10.296-7.922c-1.531-5.688,1.843-11.531,7.53-13.063
						l29.14-7.797c5.703-1.531,11.547,1.844,13.063,7.531c1.531,5.703-1.844,11.547-7.531,13.063l-29.14,7.813
						C171.94,354.356,171.003,354.481,170.097,354.481z"/>
				</g>
			</g>
			<g>
				<g>
					<path fill="#4A89DC" d="M299.405,429.136c-4.703,0-9.016-3.141-10.281-7.906l-7.813-29.141
						c-1.531-5.688,1.844-11.53,7.531-13.062c5.703-1.531,11.547,1.859,13.078,7.546l7.797,29.141
						c1.531,5.688-1.844,11.531-7.531,13.063C301.249,429.026,300.327,429.136,299.405,429.136z"/>
				</g>
				<g>
					<path fill="#4A89DC" d="M291.608,399.995c-4.719,0-9.016-3.141-10.297-7.906c-1.531-5.688,1.844-11.53,7.531-13.062
						l29.156-7.813c5.687-1.516,11.53,1.859,13.062,7.547c1.516,5.687-1.859,11.53-7.547,13.062l-29.14,7.813
						C293.452,399.886,292.515,399.995,291.608,399.995z"/>
				</g>
			</g>
		</g>
	</g>
	<g>
		<g>
			<g>
				<path fill="#4A89DC" d="M171.534,415.995c-3.688,0-7.266-1.906-9.25-5.328c-2.937-5.109-1.188-11.625,3.906-14.578
					l147.809-85.325c5.094-2.953,11.624-1.203,14.562,3.906c2.938,5.094,1.203,11.624-3.906,14.562l-147.792,85.342
					C175.175,415.542,173.347,415.995,171.534,415.995z"/>
			</g>
			<g>
				<g>
					<path fill="#4A89DC" d="M199.252,399.995c-0.922,0-1.844-0.109-2.781-0.359l-29.14-7.813c-5.688-1.531-9.062-7.375-7.53-13.062
						c1.515-5.688,7.358-9.063,13.062-7.547l29.14,7.813c5.688,1.531,9.063,7.374,7.531,13.062
						C208.268,396.854,203.955,399.995,199.252,399.995z"/>
				</g>
				<g>
					<path fill="#4A89DC" d="M191.439,429.136c-0.922,0-1.844-0.109-2.766-0.359c-5.703-1.531-9.077-7.375-7.547-13.063
						l7.813-29.141c1.516-5.687,7.375-9.077,13.063-7.546s9.063,7.374,7.531,13.062l-7.797,29.141
						C200.455,425.995,196.143,429.136,191.439,429.136z"/>
				</g>
			</g>
			<g>
				<g>
					<path fill="#4A89DC" d="M320.765,354.481c-0.922,0-1.844-0.125-2.766-0.375l-29.156-7.813
						c-5.688-1.516-9.063-7.359-7.531-13.063c1.516-5.688,7.375-9.063,13.063-7.531l29.14,7.797
						c5.688,1.531,9.063,7.375,7.547,13.063C329.779,351.325,325.467,354.481,320.765,354.481z"/>
				</g>
				<g>
					<path fill="#4A89DC" d="M291.624,346.669c-0.922,0-1.844-0.125-2.781-0.375c-5.688-1.516-9.063-7.359-7.531-13.063
						l7.813-29.139c1.516-5.688,7.375-9.063,13.063-7.531c5.688,1.516,9.063,7.359,7.531,13.062l-7.797,29.14
						C300.64,343.528,296.327,346.669,291.624,346.669z"/>
				</g>
			</g>
		</g>
	</g>
	<g>
		<g>
			<g>
				<path fill="#5D9CEC" d="M245.422,458.665c-5.89,0-10.671-4.781-10.671-10.671V277.327c0-5.89,4.781-10.655,10.671-10.655
					c5.891,0,10.672,4.766,10.672,10.655v170.667C256.094,453.884,251.313,458.665,245.422,458.665z"/>
			</g>
			<g>
				<g>
					<path fill="#5D9CEC" d="M245.422,319.998c-2.734,0-5.453-1.047-7.546-3.125c-4.156-4.172-4.156-10.921,0-15.077l21.344-21.344
						c4.155-4.155,10.921-4.155,15.077,0c4.172,4.172,4.172,10.922,0,15.094l-21.328,21.327
						C250.891,318.951,248.156,319.998,245.422,319.998z"/>
				</g>
				<g>
					<path fill="#5D9CEC" d="M245.422,319.998c-2.734,0-5.453-1.047-7.546-3.125l-21.327-21.327c-4.172-4.172-4.172-10.922,0-15.094
						c4.171-4.155,10.921-4.155,15.077,0l21.343,21.344c4.157,4.156,4.157,10.905,0,15.077
						C250.891,318.951,248.156,319.998,245.422,319.998z"/>
				</g>
			</g>
			<g>
				<g>
					<path fill="#5D9CEC" d="M224.095,447.994c-2.734,0-5.468-1.047-7.546-3.125c-4.172-4.171-4.172-10.921,0-15.077l21.327-21.344
						c4.171-4.156,10.921-4.156,15.093,0c4.157,4.172,4.157,10.922,0,15.094l-21.343,21.327
						C229.548,446.947,226.813,447.994,224.095,447.994z"/>
				</g>
				<g>
					<path fill="#5D9CEC" d="M266.75,447.994c-2.719,0-5.453-1.047-7.53-3.125l-21.344-21.327c-4.156-4.172-4.156-10.922,0-15.094
						c4.171-4.156,10.921-4.156,15.093,0l21.328,21.344c4.172,4.156,4.172,10.906,0,15.077
						C272.219,446.947,269.484,447.994,266.75,447.994z"/>
				</g>
			</g>
		</g>
	</g>
</g>
</svg>
